<svg xmlns="http://www.w3.org/2000/svg" width="1280" height="860" viewBox="0 0 1280 860">
<defs>
<style>
text { font-family: 'Noto Sans CJK SC', 'Source Han Sans SC', 'Microsoft YaHei', 'PingFang SC', 'SimHei', 'WenQuanYi Micro Hei', sans-serif; fill: #111827; }
.title { font-size: 22px; font-weight: 700; }
.subtitle { font-size: 13px; fill: #4b5563; }
.axis { stroke: #6b7280; stroke-width: 1; }
.grid { stroke: #e5e7eb; stroke-width: 1; }
.label { font-size: 12px; fill: #374151; }
.small { font-size: 11px; fill: #4b5563; }
.value { font-size: 12px; font-weight: 600; }
.panel-title { font-size: 15px; font-weight: 700; }
.note { font-size: 12px; fill: #4b5563; }
</style>
</defs>
<rect x="0" y="0" width="1280" height="860" fill="#ffffff"/>
<text class="title" x="40" y="42">跨数据集优化前后核心指标对比</text>
<text class="subtitle" x="40" y="68">Monday 作为真实/基准流量，Tuesday-Friday 作为实验流量；每组左侧为 baseline run 0，右侧为最终 committed run。</text>
<rect x="62" y="116" width="560" height="300" fill="#ffffff" stroke="#9ca3af" stroke-width="1"/>
<text class="panel-title" x="80" y="146">启用规则数量</text>
<line class="axis" x1="116" y1="368" x2="590" y2="368"/>
<line class="grid" x1="116" y1="368.0" x2="590" y2="368.0"/>
<text class="small" x="108" y="372.0" text-anchor="end">0</text>
<line class="grid" x1="116" y1="319.0" x2="590" y2="319.0"/>
<text class="small" x="108" y="323.0" text-anchor="end">13,179</text>
<line class="grid" x1="116" y1="270.0" x2="590" y2="270.0"/>
<text class="small" x="108" y="274.0" text-anchor="end">26,358</text>
<line class="grid" x1="116" y1="221.0" x2="590" y2="221.0"/>
<text class="small" x="108" y="225.0" text-anchor="end">39,537</text>
<line class="grid" x1="116" y1="172.0" x2="590" y2="172.0"/>
<text class="small" x="108" y="176.0" text-anchor="end">52,716</text>
<rect x="141.2" y="193.0" width="29.625" height="175.0" fill="#7f7f7f"/>
<text class="small" x="156.0" y="188.0" text-anchor="middle">47,068</text>
<rect x="175.2" y="261.0" width="29.625" height="107.0" fill="#e69f00"/>
<text class="small" x="190.1" y="256.0" text-anchor="middle">28,766</text>
<text class="label" x="175.2" y="392.0" text-anchor="middle">周二</text>
<rect x="259.7" y="193.0" width="29.625" height="175.0" fill="#7f7f7f"/>
<text class="small" x="274.5" y="188.0" text-anchor="middle">47,068</text>
<rect x="293.8" y="260.9" width="29.625" height="107.1" fill="#e69f00"/>
<text class="small" x="308.6" y="255.9" text-anchor="middle">28,819</text>
<text class="label" x="293.8" y="392.0" text-anchor="middle">周三</text>
<rect x="378.2" y="193.0" width="29.625" height="175.0" fill="#7f7f7f"/>
<text class="small" x="393.0" y="188.0" text-anchor="middle">47,068</text>
<rect x="412.2" y="263.6" width="29.625" height="104.4" fill="#e69f00"/>
<text class="small" x="427.1" y="258.6" text-anchor="middle">28,088</text>
<text class="label" x="412.2" y="392.0" text-anchor="middle">周四</text>
<rect x="496.7" y="193.0" width="29.625" height="175.0" fill="#7f7f7f"/>
<text class="small" x="511.5" y="188.0" text-anchor="middle">47,068</text>
<rect x="530.8" y="263.6" width="29.625" height="104.4" fill="#e69f00"/>
<text class="small" x="545.6" y="258.6" text-anchor="middle">28,085</text>
<text class="label" x="530.8" y="392.0" text-anchor="middle">周五</text>
<rect x="472" y="134" width="12" height="12" fill="#7f7f7f"/>
<text class="small" x="490" y="145">优化前</text>
<rect x="540" y="134" width="12" height="12" fill="#e69f00"/>
<text class="small" x="558" y="145">优化后</text>
<text class="note" x="80" y="400">单位：条</text>
<rect x="692" y="116" width="560" height="300" fill="#ffffff" stroke="#9ca3af" stroke-width="1"/>
<text class="panel-title" x="710" y="146">规则总耗时</text>
<line class="axis" x1="746" y1="368" x2="1220" y2="368"/>
<line class="grid" x1="746" y1="368.0" x2="1220" y2="368.0"/>
<text class="small" x="738" y="372.0" text-anchor="end">0.0</text>
<line class="grid" x1="746" y1="319.0" x2="1220" y2="319.0"/>
<text class="small" x="738" y="323.0" text-anchor="end">55</text>
<line class="grid" x1="746" y1="270.0" x2="1220" y2="270.0"/>
<text class="small" x="738" y="274.0" text-anchor="end">109</text>
<line class="grid" x1="746" y1="221.0" x2="1220" y2="221.0"/>
<text class="small" x="738" y="225.0" text-anchor="end">164</text>
<line class="grid" x1="746" y1="172.0" x2="1220" y2="172.0"/>
<text class="small" x="738" y="176.0" text-anchor="end">219</text>
<rect x="771.2" y="193.0" width="29.625" height="175.0" fill="#7f7f7f"/>
<text class="small" x="786.0" y="188.0" text-anchor="middle">195.2</text>
<rect x="805.2" y="366.3" width="29.625" height="1.7" fill="#e69f00"/>
<text class="small" x="820.1" y="361.3" text-anchor="middle">1.9</text>
<text class="label" x="805.2" y="392.0" text-anchor="middle">周二</text>
<rect x="889.7" y="198.0" width="29.625" height="170.0" fill="#7f7f7f"/>
<text class="small" x="904.5" y="193.0" text-anchor="middle">189.6</text>
<rect x="923.8" y="363.5" width="29.625" height="4.5" fill="#e69f00"/>
<text class="small" x="938.6" y="358.5" text-anchor="middle">5.0</text>
<text class="label" x="923.8" y="392.0" text-anchor="middle">周三</text>
<rect x="1008.2" y="197.4" width="29.625" height="170.6" fill="#7f7f7f"/>
<text class="small" x="1023.0" y="192.4" text-anchor="middle">190.2</text>
<rect x="1042.2" y="367.9" width="29.625" height="0.1" fill="#e69f00"/>
<text class="small" x="1057.1" y="362.9" text-anchor="middle">0.1</text>
<text class="label" x="1042.2" y="392.0" text-anchor="middle">周四</text>
<rect x="1126.7" y="195.0" width="29.625" height="173.0" fill="#7f7f7f"/>
<text class="small" x="1141.5" y="190.0" text-anchor="middle">193.0</text>
<rect x="1160.8" y="367.9" width="29.625" height="0.1" fill="#e69f00"/>
<text class="small" x="1175.6" y="362.9" text-anchor="middle">0.1</text>
<text class="label" x="1160.8" y="392.0" text-anchor="middle">周五</text>
<rect x="1102" y="134" width="12" height="12" fill="#7f7f7f"/>
<text class="small" x="1120" y="145">优化前</text>
<rect x="1170" y="134" width="12" height="12" fill="#e69f00"/>
<text class="small" x="1188" y="145">优化后</text>
<text class="note" x="710" y="400">单位：秒</text>
<rect x="62" y="486" width="560" height="300" fill="#ffffff" stroke="#9ca3af" stroke-width="1"/>
<text class="panel-title" x="80" y="516">真实基准流量运行时间</text>
<line class="axis" x1="116" y1="738" x2="590" y2="738"/>
<line class="grid" x1="116" y1="738.0" x2="590" y2="738.0"/>
<text class="small" x="108" y="742.0" text-anchor="end">0.0</text>
<line class="grid" x1="116" y1="689.0" x2="590" y2="689.0"/>
<text class="small" x="108" y="693.0" text-anchor="end">97</text>
<line class="grid" x1="116" y1="640.0" x2="590" y2="640.0"/>
<text class="small" x="108" y="644.0" text-anchor="end">194</text>
<line class="grid" x1="116" y1="591.0" x2="590" y2="591.0"/>
<text class="small" x="108" y="595.0" text-anchor="end">292</text>
<line class="grid" x1="116" y1="542.0" x2="590" y2="542.0"/>
<text class="small" x="108" y="546.0" text-anchor="end">389</text>
<rect x="141.2" y="563.0" width="29.625" height="175.0" fill="#7f7f7f"/>
<text class="small" x="156.0" y="558.0" text-anchor="middle">347.2</text>
<rect x="175.2" y="627.4" width="29.625" height="110.6" fill="#e69f00"/>
<text class="small" x="190.1" y="622.4" text-anchor="middle">219.6</text>
<text class="label" x="175.2" y="762.0" text-anchor="middle">周二</text>
<rect x="259.7" y="564.1" width="29.625" height="173.9" fill="#7f7f7f"/>
<text class="small" x="274.5" y="559.1" text-anchor="middle">345.2</text>
<rect x="293.8" y="625.9" width="29.625" height="112.1" fill="#e69f00"/>
<text class="small" x="308.6" y="620.9" text-anchor="middle">222.3</text>
<text class="label" x="293.8" y="762.0" text-anchor="middle">周三</text>
<rect x="378.2" y="564.0" width="29.625" height="174.0" fill="#7f7f7f"/>
<text class="small" x="393.0" y="559.0" text-anchor="middle">345.2</text>
<rect x="412.2" y="629.6" width="29.625" height="108.4" fill="#e69f00"/>
<text class="small" x="427.1" y="624.6" text-anchor="middle">215.1</text>
<text class="label" x="412.2" y="762.0" text-anchor="middle">周四</text>
<rect x="496.7" y="563.4" width="29.625" height="174.6" fill="#7f7f7f"/>
<text class="small" x="511.5" y="558.4" text-anchor="middle">346.5</text>
<rect x="530.8" y="629.8" width="29.625" height="108.2" fill="#e69f00"/>
<text class="small" x="545.6" y="624.8" text-anchor="middle">214.7</text>
<text class="label" x="530.8" y="762.0" text-anchor="middle">周五</text>
<rect x="472" y="504" width="12" height="12" fill="#7f7f7f"/>
<text class="small" x="490" y="515">优化前</text>
<rect x="540" y="504" width="12" height="12" fill="#e69f00"/>
<text class="small" x="558" y="515">优化后</text>
<text class="note" x="80" y="770">单位：秒</text>
<rect x="692" y="486" width="560" height="300" fill="#ffffff" stroke="#9ca3af" stroke-width="1"/>
<text class="panel-title" x="710" y="516">实验流量运行时间</text>
<line class="axis" x1="746" y1="738" x2="1220" y2="738"/>
<line class="grid" x1="746" y1="738.0" x2="1220" y2="738.0"/>
<text class="small" x="738" y="742.0" text-anchor="end">0.0</text>
<line class="grid" x1="746" y1="689.0" x2="1220" y2="689.0"/>
<text class="small" x="738" y="693.0" text-anchor="end">115</text>
<line class="grid" x1="746" y1="640.0" x2="1220" y2="640.0"/>
<text class="small" x="738" y="644.0" text-anchor="end">230</text>
<line class="grid" x1="746" y1="591.0" x2="1220" y2="591.0"/>
<text class="small" x="738" y="595.0" text-anchor="end">345</text>
<line class="grid" x1="746" y1="542.0" x2="1220" y2="542.0"/>
<text class="small" x="738" y="546.0" text-anchor="end">460</text>
<rect x="771.2" y="578.1" width="29.625" height="159.9" fill="#7f7f7f"/>
<text class="small" x="786.0" y="573.1" text-anchor="middle">375.0</text>
<rect x="805.2" y="633.1" width="29.625" height="104.9" fill="#e69f00"/>
<text class="small" x="820.1" y="628.1" text-anchor="middle">246.1</text>
<text class="label" x="805.2" y="762.0" text-anchor="middle">周二</text>
<rect x="889.7" y="563.0" width="29.625" height="175.0" fill="#7f7f7f"/>
<text class="small" x="904.5" y="558.0" text-anchor="middle">410.4</text>
<rect x="923.8" y="628.0" width="29.625" height="110.0" fill="#e69f00"/>
<text class="small" x="938.6" y="623.0" text-anchor="middle">258.1</text>
<text class="label" x="923.8" y="762.0" text-anchor="middle">周三</text>
<rect x="1008.2" y="622.4" width="29.625" height="115.6" fill="#7f7f7f"/>
<text class="small" x="1023.0" y="617.4" text-anchor="middle">271.2</text>
<rect x="1042.2" y="667.1" width="29.625" height="70.9" fill="#e69f00"/>
<text class="small" x="1057.1" y="662.1" text-anchor="middle">166.4</text>
<text class="label" x="1042.2" y="762.0" text-anchor="middle">周四</text>
<rect x="1126.7" y="615.3" width="29.625" height="122.7" fill="#7f7f7f"/>
<text class="small" x="1141.5" y="610.3" text-anchor="middle">287.9</text>
<rect x="1160.8" y="664.6" width="29.625" height="73.4" fill="#e69f00"/>
<text class="small" x="1175.6" y="659.6" text-anchor="middle">172.2</text>
<text class="label" x="1160.8" y="762.0" text-anchor="middle">周五</text>
<rect x="1102" y="504" width="12" height="12" fill="#7f7f7f"/>
<text class="small" x="1120" y="515">优化前</text>
<rect x="1170" y="504" width="12" height="12" fill="#e69f00"/>
<text class="small" x="1188" y="515">优化后</text>
<text class="note" x="710" y="770">单位：秒</text>
</svg>
