<svg xmlns="http://www.w3.org/2000/svg" width="1220" height="692" viewBox="0 0 1220 692">
<defs>
<style>
text { font-family: 'Noto Sans CJK SC', 'Source Han Sans SC', 'Microsoft YaHei', 'PingFang SC', 'SimHei', 'WenQuanYi Micro Hei', sans-serif; fill: #111827; }
.axis { stroke: #6b7280; stroke-width: 1; }
.grid { stroke: #e5e7eb; stroke-width: 1; }
.label { font-size: 12px; fill: #374151; }
.small { font-size: 11px; fill: #4b5563; }
.value { font-size: 12px; font-weight: 600; }
.panel-title { font-size: 15px; font-weight: 700; }
.note { font-size: 12px; fill: #4b5563; }
</style>
</defs>
<rect x="0" y="0" width="1220" height="692" fill="#ffffff"/>
<rect x="28" y="24" width="560" height="300" fill="#ffffff" stroke="#9ca3af" stroke-width="1"/>
<text class="panel-title" x="46" y="54">周二实验流量</text>
<line class="grid" x1="92" y1="278.0" x2="556" y2="278.0"/>
<text class="small" x="84" y="282.0" text-anchor="end">0.0</text>
<line class="grid" x1="92" y1="228.5" x2="556" y2="228.5"/>
<text class="small" x="84" y="232.5" text-anchor="end">54.6</text>
<line class="grid" x1="92" y1="179.0" x2="556" y2="179.0"/>
<text class="small" x="84" y="183.0" text-anchor="end">109.3</text>
<line class="grid" x1="92" y1="129.5" x2="556" y2="129.5"/>
<text class="small" x="84" y="133.5" text-anchor="end">163.9</text>
<line class="grid" x1="92" y1="80.0" x2="556" y2="80.0"/>
<text class="small" x="84" y="84.0" text-anchor="end">218.6</text>
<line class="axis" x1="92" y1="278" x2="556" y2="278"/>
<polyline points="92.0,101.2 121.0,128.5 150.0,128.9 179.0,131.5 208.0,127.8 237.0,131.6 266.0,140.4 295.0,140.7 324.0,144.9 353.0,238.1 382.0,264.1 411.0,272.0 440.0,275.0 469.0,277.3 498.0,276.7 527.0,276.2 556.0,276.7" fill="none" stroke="#009e73" stroke-width="2.8"/>
<circle cx="92.0" cy="101.2" r="4.5" fill="#009e73" stroke="#009e73" stroke-width="2"/>
<circle cx="121.0" cy="128.5" r="4.5" fill="#009e73" stroke="#009e73" stroke-width="2"/>
<circle cx="150.0" cy="128.9" r="4.5" fill="#009e73" stroke="#009e73" stroke-width="2"/>
<circle cx="179.0" cy="131.5" r="4.5" fill="#009e73" stroke="#009e73" stroke-width="2"/>
<circle cx="208.0" cy="127.8" r="4.5" fill="#009e73" stroke="#009e73" stroke-width="2"/>
<circle cx="237.0" cy="131.6" r="4.5" fill="#009e73" stroke="#009e73" stroke-width="2"/>
<circle cx="266.0" cy="140.4" r="4.5" fill="#009e73" stroke="#009e73" stroke-width="2"/>
<circle cx="295.0" cy="140.7" r="4.5" fill="#009e73" stroke="#009e73" stroke-width="2"/>
<circle cx="324.0" cy="144.9" r="4.5" fill="#009e73" stroke="#009e73" stroke-width="2"/>
<circle cx="353.0" cy="238.1" r="4.5" fill="#009e73" stroke="#009e73" stroke-width="2"/>
<circle cx="382.0" cy="264.1" r="4.5" fill="#009e73" stroke="#009e73" stroke-width="2"/>
<circle cx="411.0" cy="272.0" r="4.5" fill="#009e73" stroke="#009e73" stroke-width="2"/>
<circle cx="440.0" cy="275.0" r="4.5" fill="#009e73" stroke="#009e73" stroke-width="2"/>
<circle cx="469.0" cy="277.3" r="4.5" fill="#fff" stroke="#d55e00" stroke-width="2"/>
<circle cx="498.0" cy="276.7" r="4.5" fill="#fff" stroke="#d55e00" stroke-width="2"/>
<circle cx="527.0" cy="276.2" r="4.5" fill="#009e73" stroke="#009e73" stroke-width="2"/>
<circle cx="556.0" cy="276.7" r="4.5" fill="#fff" stroke="#d55e00" stroke-width="2"/>
<text class="small" x="92.0" y="300.0" text-anchor="middle">0</text>
<text class="small" x="208.0" y="300.0" text-anchor="middle">4</text>
<text class="small" x="324.0" y="300.0" text-anchor="middle">8</text>
<text class="small" x="440.0" y="300.0" text-anchor="middle">12</text>
<text class="small" x="556.0" y="300.0" text-anchor="middle">16</text>
<text class="small" x="324.0" y="320.0" text-anchor="middle">run_id</text>
<text class="value" x="398" y="54">最终下降 99.01%</text>
<rect x="632" y="24" width="560" height="300" fill="#ffffff" stroke="#9ca3af" stroke-width="1"/>
<text class="panel-title" x="650" y="54">周三实验流量</text>
<line class="grid" x1="696" y1="278.0" x2="1160" y2="278.0"/>
<text class="small" x="688" y="282.0" text-anchor="end">0.0</text>
<line class="grid" x1="696" y1="228.5" x2="1160" y2="228.5"/>
<text class="small" x="688" y="232.5" text-anchor="end">53.1</text>
<line class="grid" x1="696" y1="179.0" x2="1160" y2="179.0"/>
<text class="small" x="688" y="183.0" text-anchor="end">106.2</text>
<line class="grid" x1="696" y1="129.5" x2="1160" y2="129.5"/>
<text class="small" x="688" y="133.5" text-anchor="end">159.2</text>
<line class="grid" x1="696" y1="80.0" x2="1160" y2="80.0"/>
<text class="small" x="688" y="84.0" text-anchor="end">212.3</text>
<line class="axis" x1="696" y1="278" x2="1160" y2="278"/>
<polyline points="696.0,101.2 725.0,123.6 754.0,124.9 783.0,123.4 812.0,125.7 841.0,129.0 870.0,138.5 899.0,137.0 928.0,141.2 957.0,237.3 986.0,262.3 1015.0,270.7 1044.0,273.3 1073.0,277.3 1102.0,276.7 1131.0,276.2 1160.0,275.7" fill="none" stroke="#009e73" stroke-width="2.8"/>
<circle cx="696.0" cy="101.2" r="4.5" fill="#009e73" stroke="#009e73" stroke-width="2"/>
<circle cx="725.0" cy="123.6" r="4.5" fill="#009e73" stroke="#009e73" stroke-width="2"/>
<circle cx="754.0" cy="124.9" r="4.5" fill="#009e73" stroke="#009e73" stroke-width="2"/>
<circle cx="783.0" cy="123.4" r="4.5" fill="#009e73" stroke="#009e73" stroke-width="2"/>
<circle cx="812.0" cy="125.7" r="4.5" fill="#009e73" stroke="#009e73" stroke-width="2"/>
<circle cx="841.0" cy="129.0" r="4.5" fill="#009e73" stroke="#009e73" stroke-width="2"/>
<circle cx="870.0" cy="138.5" r="4.5" fill="#009e73" stroke="#009e73" stroke-width="2"/>
<circle cx="899.0" cy="137.0" r="4.5" fill="#009e73" stroke="#009e73" stroke-width="2"/>
<circle cx="928.0" cy="141.2" r="4.5" fill="#009e73" stroke="#009e73" stroke-width="2"/>
<circle cx="957.0" cy="237.3" r="4.5" fill="#009e73" stroke="#009e73" stroke-width="2"/>
<circle cx="986.0" cy="262.3" r="4.5" fill="#009e73" stroke="#009e73" stroke-width="2"/>
<circle cx="1015.0" cy="270.7" r="4.5" fill="#009e73" stroke="#009e73" stroke-width="2"/>
<circle cx="1044.0" cy="273.3" r="4.5" fill="#009e73" stroke="#009e73" stroke-width="2"/>
<circle cx="1073.0" cy="277.3" r="4.5" fill="#fff" stroke="#d55e00" stroke-width="2"/>
<circle cx="1102.0" cy="276.7" r="4.5" fill="#fff" stroke="#d55e00" stroke-width="2"/>
<circle cx="1131.0" cy="276.2" r="4.5" fill="#fff" stroke="#d55e00" stroke-width="2"/>
<circle cx="1160.0" cy="275.7" r="4.5" fill="#fff" stroke="#d55e00" stroke-width="2"/>
<text class="small" x="696.0" y="300.0" text-anchor="middle">0</text>
<text class="small" x="812.0" y="300.0" text-anchor="middle">4</text>
<text class="small" x="928.0" y="300.0" text-anchor="middle">8</text>
<text class="small" x="1044.0" y="300.0" text-anchor="middle">12</text>
<text class="small" x="1160.0" y="300.0" text-anchor="middle">16</text>
<text class="small" x="928.0" y="320.0" text-anchor="middle">run_id</text>
<text class="value" x="1002" y="54">最终下降 97.34%</text>
<rect x="28" y="368" width="560" height="300" fill="#ffffff" stroke="#9ca3af" stroke-width="1"/>
<text class="panel-title" x="46" y="398">周四实验流量</text>
<line class="grid" x1="92" y1="622.0" x2="556" y2="622.0"/>
<text class="small" x="84" y="626.0" text-anchor="end">0.0</text>
<line class="grid" x1="92" y1="572.5" x2="556" y2="572.5"/>
<text class="small" x="84" y="576.5" text-anchor="end">53.3</text>
<line class="grid" x1="92" y1="523.0" x2="556" y2="523.0"/>
<text class="small" x="84" y="527.0" text-anchor="end">106.5</text>
<line class="grid" x1="92" y1="473.5" x2="556" y2="473.5"/>
<text class="small" x="84" y="477.5" text-anchor="end">159.8</text>
<line class="grid" x1="92" y1="424.0" x2="556" y2="424.0"/>
<text class="small" x="84" y="428.0" text-anchor="end">213.1</text>
<line class="axis" x1="92" y1="622" x2="556" y2="622"/>
<polyline points="92.0,445.2 121.0,466.6 150.0,466.6 179.0,471.1 208.0,469.3 237.0,468.3 266.0,474.6 295.0,478.5 324.0,484.3 353.0,569.6 382.0,596.2 411.0,603.7 440.0,606.5 469.0,621.3 498.0,621.7 527.0,621.9 556.0,621.9" fill="none" stroke="#009e73" stroke-width="2.8"/>
<circle cx="92.0" cy="445.2" r="4.5" fill="#009e73" stroke="#009e73" stroke-width="2"/>
<circle cx="121.0" cy="466.6" r="4.5" fill="#009e73" stroke="#009e73" stroke-width="2"/>
<circle cx="150.0" cy="466.6" r="4.5" fill="#009e73" stroke="#009e73" stroke-width="2"/>
<circle cx="179.0" cy="471.1" r="4.5" fill="#009e73" stroke="#009e73" stroke-width="2"/>
<circle cx="208.0" cy="469.3" r="4.5" fill="#009e73" stroke="#009e73" stroke-width="2"/>
<circle cx="237.0" cy="468.3" r="4.5" fill="#009e73" stroke="#009e73" stroke-width="2"/>
<circle cx="266.0" cy="474.6" r="4.5" fill="#009e73" stroke="#009e73" stroke-width="2"/>
<circle cx="295.0" cy="478.5" r="4.5" fill="#009e73" stroke="#009e73" stroke-width="2"/>
<circle cx="324.0" cy="484.3" r="4.5" fill="#009e73" stroke="#009e73" stroke-width="2"/>
<circle cx="353.0" cy="569.6" r="4.5" fill="#009e73" stroke="#009e73" stroke-width="2"/>
<circle cx="382.0" cy="596.2" r="4.5" fill="#009e73" stroke="#009e73" stroke-width="2"/>
<circle cx="411.0" cy="603.7" r="4.5" fill="#009e73" stroke="#009e73" stroke-width="2"/>
<circle cx="440.0" cy="606.5" r="4.5" fill="#009e73" stroke="#009e73" stroke-width="2"/>
<circle cx="469.0" cy="621.3" r="4.5" fill="#009e73" stroke="#009e73" stroke-width="2"/>
<circle cx="498.0" cy="621.7" r="4.5" fill="#009e73" stroke="#009e73" stroke-width="2"/>
<circle cx="527.0" cy="621.9" r="4.5" fill="#009e73" stroke="#009e73" stroke-width="2"/>
<circle cx="556.0" cy="621.9" r="4.5" fill="#009e73" stroke="#009e73" stroke-width="2"/>
<text class="small" x="92.0" y="644.0" text-anchor="middle">0</text>
<text class="small" x="208.0" y="644.0" text-anchor="middle">4</text>
<text class="small" x="324.0" y="644.0" text-anchor="middle">8</text>
<text class="small" x="440.0" y="644.0" text-anchor="middle">12</text>
<text class="small" x="556.0" y="644.0" text-anchor="middle">16</text>
<text class="small" x="324.0" y="664.0" text-anchor="middle">run_id</text>
<text class="value" x="398" y="398">最终下降 99.96%</text>
<rect x="632" y="368" width="560" height="300" fill="#ffffff" stroke="#9ca3af" stroke-width="1"/>
<text class="panel-title" x="650" y="398">周五实验流量</text>
<line class="grid" x1="696" y1="622.0" x2="1160" y2="622.0"/>
<text class="small" x="688" y="626.0" text-anchor="end">0.0</text>
<line class="grid" x1="696" y1="572.5" x2="1160" y2="572.5"/>
<text class="small" x="688" y="576.5" text-anchor="end">54.0</text>
<line class="grid" x1="696" y1="523.0" x2="1160" y2="523.0"/>
<text class="small" x="688" y="527.0" text-anchor="end">108.1</text>
<line class="grid" x1="696" y1="473.5" x2="1160" y2="473.5"/>
<text class="small" x="688" y="477.5" text-anchor="end">162.1</text>
<line class="grid" x1="696" y1="424.0" x2="1160" y2="424.0"/>
<text class="small" x="688" y="428.0" text-anchor="end">216.1</text>
<line class="axis" x1="696" y1="622" x2="1160" y2="622"/>
<polyline points="696.0,445.2 725.0,469.4 754.0,468.2 783.0,474.6 812.0,472.1 841.0,471.5 870.0,478.9 899.0,481.9 928.0,480.4 957.0,580.9 986.0,607.7 1015.0,615.7 1044.0,618.5 1073.0,621.3 1102.0,621.7 1131.0,621.9 1160.0,621.9" fill="none" stroke="#009e73" stroke-width="2.8"/>
<circle cx="696.0" cy="445.2" r="4.5" fill="#009e73" stroke="#009e73" stroke-width="2"/>
<circle cx="725.0" cy="469.4" r="4.5" fill="#009e73" stroke="#009e73" stroke-width="2"/>
<circle cx="754.0" cy="468.2" r="4.5" fill="#009e73" stroke="#009e73" stroke-width="2"/>
<circle cx="783.0" cy="474.6" r="4.5" fill="#009e73" stroke="#009e73" stroke-width="2"/>
<circle cx="812.0" cy="472.1" r="4.5" fill="#009e73" stroke="#009e73" stroke-width="2"/>
<circle cx="841.0" cy="471.5" r="4.5" fill="#009e73" stroke="#009e73" stroke-width="2"/>
<circle cx="870.0" cy="478.9" r="4.5" fill="#009e73" stroke="#009e73" stroke-width="2"/>
<circle cx="899.0" cy="481.9" r="4.5" fill="#009e73" stroke="#009e73" stroke-width="2"/>
<circle cx="928.0" cy="480.4" r="4.5" fill="#009e73" stroke="#009e73" stroke-width="2"/>
<circle cx="957.0" cy="580.9" r="4.5" fill="#009e73" stroke="#009e73" stroke-width="2"/>
<circle cx="986.0" cy="607.7" r="4.5" fill="#009e73" stroke="#009e73" stroke-width="2"/>
<circle cx="1015.0" cy="615.7" r="4.5" fill="#009e73" stroke="#009e73" stroke-width="2"/>
<circle cx="1044.0" cy="618.5" r="4.5" fill="#009e73" stroke="#009e73" stroke-width="2"/>
<circle cx="1073.0" cy="621.3" r="4.5" fill="#009e73" stroke="#009e73" stroke-width="2"/>
<circle cx="1102.0" cy="621.7" r="4.5" fill="#009e73" stroke="#009e73" stroke-width="2"/>
<circle cx="1131.0" cy="621.9" r="4.5" fill="#009e73" stroke="#009e73" stroke-width="2"/>
<circle cx="1160.0" cy="621.9" r="4.5" fill="#009e73" stroke="#009e73" stroke-width="2"/>
<text class="small" x="696.0" y="644.0" text-anchor="middle">0</text>
<text class="small" x="812.0" y="644.0" text-anchor="middle">4</text>
<text class="small" x="928.0" y="644.0" text-anchor="middle">8</text>
<text class="small" x="1044.0" y="644.0" text-anchor="middle">12</text>
<text class="small" x="1160.0" y="644.0" text-anchor="middle">16</text>
<text class="small" x="928.0" y="664.0" text-anchor="middle">run_id</text>
<text class="value" x="1002" y="398">最终下降 99.96%</text>
</svg>
